{"title":"Suicide.Squad.2016.720p.HC.HDRIP.x264.AAC-SHOWSCEN","uid":15977962,"size":3415336547,"categoryP":"video","categoryS":"hd___movies","magnet":"?xt=urn:btih:c3c65f4ed71373dcc10a3f6ab9fa25a527a4e8f4&amp;dn=Suicide.Squad.2016.720p.HC.HDRIP.x264.AAC-SHOWSCEN&amp;tr=udp%3A%2F%2Ftracker.leechers-paradise.org%3A6969&amp;tr=udp%3A%2F%2Fzer0day.ch%3A1337&amp;tr=udp%3A%2F%2Fopen.demonii.com%3A1337&amp;tr=udp%3A%2F%2Ftracker.coppersurfer.tk%3A6969&amp;tr=udp%3A%2F%2Fexodus.desync.com%3A6969","seeders":15,"leechers":5,"uploader":"SaM","files":6,"time":1475864699,"description":"Note : we are back with other exclusive.\r\nits have hardcoded Korean subs\r\n\r\n---\r\npics sample :\r\n \nhttps://extraimago.com/image/wKYY \nhttps://extraimago.com/image/wKYC \nhttps://extraimago.com/image/wKYB \nhttps://extraimago.com/image/wKY4\r\n\r\nnfo :\r\n\r\nGeneral\r\nComplete name : /home/psb9581/files/Suicide.Squad.2016.720p.HC.HDRIP.x264.AAC-SHOWSCEN/Suicide.Squad.2016.720p.HC.HDRIP.x264.AAC-SHOWSCEN.mp4\r\nFormat : MPEG-4\r\nFormat profile : Base Media\r\nCodec ID : isom\r\nFile size : 3.18 GiB\r\nDuration : 2h 2mn\r\nOverall bit rate mode : Variable\r\nOverall bit rate : 3 708 Kbps\r\nWriting application : Lavf55.37.101\r\n\r\nVideo\r\nID : 1\r\nFormat : AVC\r\nFormat/Info : Advanced Video Codec\r\nFormat profile :   \r\nFormat settings, CABAC : No\r\nFormat settings, ReFrames : 1 frame\r\nFormat settings, GOP : M=1, N=12\r\nCodec ID : avc1\r\nCodec ID/Info : Advanced Video Coding\r\nDuration : 2h 2mn\r\nBit rate mode : Variable\r\nBit rate : 3 502 Kbps\r\nMaximum bit rate : 7 000 Kbps\r\nWidth : 1 280 pixels\r\nHeight : 536 pixels\r\nDisplay aspect ratio : 2.40:1\r\nFrame rate mode : Constant\r\nFrame rate : 29.970 fps\r\nColor space : YUV\r\nChroma subsampling : 4:2:0\r\nBit depth : 8 bits\r\nScan type : Progressive\r\nBits/(Pixel*Frame) : 0.170\r\nStream size : 3.00 GiB (94%)\r\n\r\nAudio\r\nID : 2\r\nFormat : AAC\r\nFormat/Info : Advanced Audio Codec\r\nFormat profile : LC\r\nCodec ID : 40\r\nDuration : 2h 2mn\r\nDuration_LastFrame : -3ms\r\nBit rate mode : Constant\r\nBit rate : 192 Kbps\r\nChannel(s) : 2 channels\r\nChannel positions : Front: L R\r\nSampling rate : 44.1 KHz\r\nCompression mode : Lossy\r\nStream size : 169 MiB (5%)","torrent":{"xt":"urn:btih:c3c65f4ed71373dcc10a3f6ab9fa25a527a4e8f4","amp;dn":"Suicide.Squad.2016.720p.HC.HDRIP.x264.AAC-SHOWSCEN","amp;tr":["udp%3A%2F%2Ftracker.leechers-paradise.org%3A6969","udp%3A%2F%2Fzer0day.ch%3A1337","udp%3A%2F%2Fopen.demonii.com%3A1337","udp%3A%2F%2Ftracker.coppersurfer.tk%3A6969","udp%3A%2F%2Fexodus.desync.com%3A6969"],"infoHash":"c3c65f4ed71373dcc10a3f6ab9fa25a527a4e8f4","infoHashBuffer":{"type":"Buffer","data":[195,198,95,78,215,19,115,220,193,10,63,106,185,250,37,165,39,164,232,244]},"announce":[],"urlList":[]}}